<svg width="50" height="50" viewBox="0 0 50 50" fill="none" xmlns="http://www.w3.org/2000/svg">
<rect width="50" height="50" rx="5" fill="#055A5B"/>
<path d="M23.417 15.2C23.5663 15.2 23.7717 15.284 24.033 15.452C24.2943 15.62 24.5277 15.816 24.733 16.04C24.9383 16.264 25.041 16.4413 25.041 16.572C25.0317 16.8147 24.873 17.5567 24.565 18.798L24.271 20.058L24.131 20.772C23.963 21.6213 23.823 22.284 23.711 22.76C23.6083 23.236 23.5103 23.5533 23.417 23.712C23.305 23.908 23.0997 24.1087 22.801 24.314C22.5023 24.51 22.1663 24.6733 21.793 24.804C21.429 24.9347 21.0837 25 20.757 25C20.421 25 20.0243 24.86 19.567 24.58C19.119 24.2907 18.7317 23.922 18.405 23.474C18.0877 23.026 17.929 22.5687 17.929 22.102C17.929 21.6633 18.0737 21.318 18.363 21.066C18.6617 20.8047 19.0023 20.674 19.385 20.674C19.7303 20.674 20.015 20.7673 20.239 20.954C20.2297 21.0473 20.225 21.1827 20.225 21.36C20.225 21.696 20.2577 22.018 20.323 22.326C20.3883 22.6247 20.477 22.8627 20.589 23.04C20.701 23.2173 20.813 23.306 20.925 23.306C21.1583 23.306 21.3823 22.998 21.597 22.382C21.821 21.7567 22.017 20.982 22.185 20.058C22.2503 19.7033 22.3297 19.3067 22.423 18.868C22.5817 18.1213 22.6797 17.58 22.717 17.244C22.3063 17.3 21.975 17.3373 21.723 17.356C21.6203 17.3653 21.4057 17.3887 21.079 17.426C20.7523 17.454 20.4583 17.496 20.197 17.552C19.9917 17.4587 19.8283 17.314 19.707 17.118C19.595 16.9127 19.539 16.6887 19.539 16.446C19.539 16.1287 19.6323 15.844 19.819 15.592C20.3697 15.452 20.9717 15.354 21.625 15.298C22.2877 15.2327 22.885 15.2 23.417 15.2ZM29.549 18.686C29.6237 18.2193 29.661 17.846 29.661 17.566C29.661 17.37 29.6423 17.216 29.605 17.104C29.577 16.992 29.5397 16.936 29.493 16.936C29.353 16.936 29.1897 17.0527 29.003 17.286C28.8257 17.5193 28.6717 17.7993 28.541 18.126C28.4197 18.4433 28.359 18.728 28.359 18.98C28.359 19.2973 28.513 19.6193 28.821 19.946C29.1383 20.2633 29.6003 20.6553 30.207 21.122C30.6643 21.458 31.005 21.738 31.229 21.962C31.453 22.1767 31.5697 22.3727 31.579 22.55C31.5883 22.942 31.383 23.3293 30.963 23.712C30.543 24.0853 30.0157 24.3933 29.381 24.636C28.7557 24.8787 28.1723 25 27.631 25C27.211 25 26.777 24.8973 26.329 24.692C25.881 24.4773 25.5077 24.23 25.209 23.95C24.9103 23.6607 24.7563 23.4087 24.747 23.194C24.7283 22.7833 24.8637 22.452 25.153 22.2C25.4423 21.9387 25.8297 21.808 26.315 21.808C26.5577 21.808 26.805 21.8407 27.057 21.906C27.169 22.522 27.267 22.9653 27.351 23.236C27.9017 23.096 28.499 22.8533 29.143 22.508C27.0617 20.9307 26.021 19.6987 26.021 18.812C26.021 18.3827 26.1797 17.8693 26.497 17.272C26.8143 16.6653 27.2343 16.1473 27.757 15.718C28.2797 15.2793 28.8303 15.06 29.409 15.06C29.8383 15.06 30.2537 15.2047 30.655 15.494C31.0563 15.7833 31.383 16.138 31.635 16.558C31.887 16.978 32.013 17.37 32.013 17.734C32.013 18.0887 31.8683 18.3733 31.579 18.588C31.299 18.7933 30.949 18.896 30.529 18.896C30.2023 18.896 29.8757 18.826 29.549 18.686Z" fill="white"/>
<path d="M5.48496 33.85L5.60496 33.69C5.75829 33.49 5.86496 33.28 5.92496 33.06C5.99163 32.84 6.02496 32.5467 6.02496 32.18V29.31C6.02496 28.9567 5.99163 28.67 5.92496 28.45C5.86496 28.2233 5.75829 28.01 5.60496 27.81L5.48496 27.64L5.60496 27.5H8.28496C8.55829 27.5 8.77496 27.4867 8.93496 27.46C9.10163 27.4267 9.23496 27.3767 9.33496 27.31L9.48496 27.19L9.62496 27.31V28.92L9.33496 29.03L9.26496 28.81C9.20496 28.5833 9.14163 28.4167 9.07496 28.31C9.00829 28.1967 8.91496 28.1167 8.79496 28.07C8.67496 28.0233 8.50496 28 8.28496 28H7.48496C7.25163 28 7.09829 28.0467 7.02496 28.14C6.95163 28.2333 6.91496 28.42 6.91496 28.7V30.53H7.98496C8.13163 30.53 8.25829 30.5 8.36496 30.44C8.47829 30.38 8.58496 30.27 8.68496 30.11L8.76496 30.01L8.95496 30.11V31.67L8.63496 31.77L8.59496 31.57C8.53496 31.3633 8.43496 31.2233 8.29496 31.15C8.15496 31.0767 7.92163 31.04 7.59496 31.04H6.91496V32.8C6.91496 33.08 6.95163 33.2733 7.02496 33.38C7.09829 33.48 7.25163 33.5667 7.48496 33.64L7.70496 33.69L7.59496 34H5.60496L5.48496 33.85ZM12.3461 34.13C11.9128 34.13 11.5761 34 11.3361 33.74C11.0961 33.4733 10.9761 33.1033 10.9761 32.63V30.37C10.9761 30.2233 10.9161 30.15 10.7961 30.15H10.3861L10.3161 29.93C10.4695 29.77 10.6561 29.64 10.8761 29.54C11.1028 29.44 11.3095 29.39 11.4961 29.39C11.5828 29.39 11.6528 29.4167 11.7061 29.47C11.7661 29.5167 11.7961 29.58 11.7961 29.66V32.41C11.7961 32.77 11.8695 33.0467 12.0161 33.24C12.1628 33.4267 12.3795 33.52 12.6661 33.52C13.0728 33.52 13.3895 33.3467 13.6161 33C13.8428 32.6467 13.9561 32.16 13.9561 31.54C13.9561 31.1 13.9295 30.7567 13.8761 30.51C13.8295 30.2567 13.7361 30.01 13.5961 29.77L13.4861 29.63L13.5961 29.5L14.7161 29.39V33.2C14.7161 33.3867 14.7961 33.48 14.9561 33.48C15.1095 33.48 15.2595 33.4267 15.4061 33.32L15.5861 33.55C15.4395 33.7233 15.2728 33.8633 15.0861 33.97C14.9061 34.0767 14.7361 34.13 14.5761 34.13C14.3361 34.13 14.1628 34.06 14.0561 33.92C13.9495 33.7733 13.8961 33.55 13.8961 33.25C13.7495 33.5233 13.5395 33.74 13.2661 33.9C12.9928 34.0533 12.6861 34.13 12.3461 34.13ZM16.2188 33.72L16.3888 33.67C16.5488 33.6433 16.6521 33.5833 16.6988 33.49C16.7521 33.39 16.7788 33.2233 16.7788 32.99V30.45C16.7788 30.3767 16.7655 30.3267 16.7388 30.3C16.7121 30.2667 16.6655 30.25 16.5988 30.25H16.2088L16.1188 30.01C16.2921 29.85 16.4921 29.72 16.7188 29.62C16.9455 29.52 17.1455 29.47 17.3188 29.47C17.4055 29.47 17.4755 29.4967 17.5288 29.55C17.5821 29.6033 17.6088 29.67 17.6088 29.75V30.74H17.6588C17.7655 30.3333 17.9255 30.0067 18.1388 29.76C18.3588 29.5133 18.5955 29.39 18.8488 29.39C19.1021 29.39 19.3088 29.4733 19.4688 29.64C19.6355 29.8 19.7188 30.0233 19.7188 30.31C19.7188 30.5367 19.6355 30.7267 19.4688 30.88C19.3021 31.0333 19.0921 31.11 18.8388 31.11C18.7188 31.11 18.6588 31.08 18.6588 31.02C18.6588 31 18.6821 30.9533 18.7288 30.88C18.7755 30.8067 18.8155 30.7333 18.8488 30.66C18.8821 30.5867 18.8988 30.5 18.8988 30.4C18.8988 30.2867 18.8721 30.2 18.8188 30.14C18.7655 30.0733 18.6955 30.04 18.6088 30.04C18.4688 30.04 18.3221 30.1267 18.1688 30.3C18.0155 30.4733 17.8821 30.75 17.7688 31.13C17.6621 31.51 17.6088 31.9933 17.6088 32.58C17.6088 32.8533 17.6288 33.0767 17.6688 33.25C17.7155 33.4167 17.7921 33.5733 17.8988 33.72L18.0088 33.86L17.8988 34H16.3088L16.2188 33.72ZM24.3536 34.13C24.107 34.13 23.9303 34.0567 23.8236 33.91C23.717 33.7567 23.6636 33.51 23.6636 33.17V31.01C23.6636 30.7033 23.597 30.4733 23.4636 30.32C23.3303 30.16 23.1336 30.08 22.8736 30.08C22.6136 30.08 22.3836 30.1833 22.1836 30.39C21.9903 30.5967 21.8403 30.8867 21.7336 31.26C21.627 31.6333 21.5736 32.0633 21.5736 32.55C21.5736 32.83 21.5936 33.0567 21.6336 33.23C21.6803 33.4033 21.757 33.5667 21.8636 33.72L21.9736 33.86L21.8636 34H20.2736L20.1836 33.72L20.3536 33.67C20.5136 33.6433 20.617 33.5833 20.6636 33.49C20.717 33.39 20.7436 33.2233 20.7436 32.99V30.45C20.7436 30.3767 20.7303 30.3267 20.7036 30.3C20.677 30.2667 20.6303 30.25 20.5636 30.25H20.1736L20.0836 30.01C20.257 29.85 20.457 29.72 20.6836 29.62C20.9103 29.52 21.1103 29.47 21.2836 29.47C21.3703 29.47 21.4403 29.4967 21.4936 29.55C21.547 29.6033 21.5736 29.67 21.5736 29.75V30.74C21.727 30.3467 21.9603 30.0233 22.2736 29.77C22.587 29.5167 22.917 29.39 23.2636 29.39C23.6836 29.39 23.9903 29.52 24.1836 29.78C24.3836 30.04 24.4836 30.45 24.4836 31.01V33.2C24.4836 33.4067 24.5736 33.51 24.7536 33.51C24.9003 33.51 25.0503 33.4467 25.2036 33.32L25.3736 33.55C25.2203 33.7233 25.0503 33.8633 24.8636 33.97C24.677 34.0767 24.507 34.13 24.3536 34.13ZM26.9239 28.63C26.8239 28.63 26.7073 28.56 26.5739 28.42C26.4406 28.28 26.3739 28.1533 26.3739 28.04C26.3739 27.9267 26.4373 27.8 26.5639 27.66C26.6973 27.52 26.8173 27.45 26.9239 27.45C27.0373 27.45 27.1606 27.52 27.2939 27.66C27.4273 27.8 27.4939 27.9267 27.4939 28.04C27.4939 28.1533 27.4273 28.28 27.2939 28.42C27.1606 28.56 27.0373 28.63 26.9239 28.63ZM27.2239 34.13C26.9773 34.13 26.7973 34.0567 26.6839 33.91C26.5773 33.7567 26.5239 33.51 26.5239 33.17V30.37C26.5239 30.29 26.5106 30.2333 26.4839 30.2C26.4573 30.1667 26.4106 30.15 26.3439 30.15H25.9339L25.8639 29.93C26.0373 29.77 26.2339 29.64 26.4539 29.54C26.6806 29.44 26.8773 29.39 27.0439 29.39C27.1306 29.39 27.2006 29.4167 27.2539 29.47C27.3139 29.5167 27.3439 29.58 27.3439 29.66V33.2C27.3439 33.4067 27.4339 33.51 27.6139 33.51C27.7539 33.51 27.9073 33.4467 28.0739 33.32L28.2439 33.55C28.0773 33.7233 27.9006 33.8633 27.7139 33.97C27.5339 34.0767 27.3706 34.13 27.2239 34.13ZM30.0462 34.13C29.7995 34.13 29.6062 34.0533 29.4662 33.9C29.3262 33.74 29.2562 33.5233 29.2562 33.25V30.06H28.4662C28.4662 29.9 28.4795 29.7967 28.5062 29.75C28.5329 29.6967 28.5929 29.6567 28.6862 29.63C29.0062 29.55 29.2329 29.4167 29.3662 29.23C29.4995 29.0433 29.5995 28.7967 29.6662 28.49C29.6795 28.3967 29.7095 28.34 29.7562 28.32C29.8095 28.2933 29.9229 28.28 30.0962 28.28V29.5H31.2662C31.2662 29.6267 31.2462 29.74 31.2062 29.84C31.1729 29.94 31.1262 30.0133 31.0662 30.06H30.0962V32.99C30.0962 33.1767 30.1195 33.31 30.1662 33.39C30.2195 33.4633 30.3095 33.5 30.4362 33.5C30.6162 33.5 30.8195 33.4033 31.0462 33.21L31.2162 33.45C31.0629 33.65 30.8762 33.8133 30.6562 33.94C30.4362 34.0667 30.2329 34.13 30.0462 34.13ZM33.7524 34.13C33.319 34.13 32.9824 34 32.7424 33.74C32.5024 33.4733 32.3824 33.1033 32.3824 32.63V30.37C32.3824 30.2233 32.3224 30.15 32.2024 30.15H31.7924L31.7224 29.93C31.8757 29.77 32.0624 29.64 32.2824 29.54C32.509 29.44 32.7157 29.39 32.9024 29.39C32.989 29.39 33.059 29.4167 33.1124 29.47C33.1724 29.5167 33.2024 29.58 33.2024 29.66V32.41C33.2024 32.77 33.2757 33.0467 33.4224 33.24C33.569 33.4267 33.7857 33.52 34.0724 33.52C34.479 33.52 34.7957 33.3467 35.0224 33C35.249 32.6467 35.3624 32.16 35.3624 31.54C35.3624 31.1 35.3357 30.7567 35.2824 30.51C35.2357 30.2567 35.1424 30.01 35.0024 29.77L34.8924 29.63L35.0024 29.5L36.1224 29.39V33.2C36.1224 33.3867 36.2024 33.48 36.3624 33.48C36.5157 33.48 36.6657 33.4267 36.8124 33.32L36.9924 33.55C36.8457 33.7233 36.679 33.8633 36.4924 33.97C36.3124 34.0767 36.1424 34.13 35.9824 34.13C35.7424 34.13 35.569 34.06 35.4624 33.92C35.3557 33.7733 35.3024 33.55 35.3024 33.25C35.1557 33.5233 34.9457 33.74 34.6724 33.9C34.399 34.0533 34.0924 34.13 33.7524 34.13ZM37.625 33.72L37.795 33.67C37.955 33.6433 38.0584 33.5833 38.105 33.49C38.1584 33.39 38.185 33.2233 38.185 32.99V30.45C38.185 30.3767 38.1717 30.3267 38.145 30.3C38.1184 30.2667 38.0717 30.25 38.005 30.25H37.615L37.525 30.01C37.6984 29.85 37.8984 29.72 38.125 29.62C38.3517 29.52 38.5517 29.47 38.725 29.47C38.8117 29.47 38.8817 29.4967 38.935 29.55C38.9884 29.6033 39.015 29.67 39.015 29.75V30.74H39.065C39.1717 30.3333 39.3317 30.0067 39.545 29.76C39.765 29.5133 40.0017 29.39 40.255 29.39C40.5084 29.39 40.715 29.4733 40.875 29.64C41.0417 29.8 41.125 30.0233 41.125 30.31C41.125 30.5367 41.0417 30.7267 40.875 30.88C40.7084 31.0333 40.4984 31.11 40.245 31.11C40.125 31.11 40.065 31.08 40.065 31.02C40.065 31 40.0884 30.9533 40.135 30.88C40.1817 30.8067 40.2217 30.7333 40.255 30.66C40.2884 30.5867 40.305 30.5 40.305 30.4C40.305 30.2867 40.2784 30.2 40.225 30.14C40.1717 30.0733 40.1017 30.04 40.015 30.04C39.875 30.04 39.7284 30.1267 39.575 30.3C39.4217 30.4733 39.2884 30.75 39.175 31.13C39.0684 31.51 39.015 31.9933 39.015 32.58C39.015 32.8533 39.035 33.0767 39.075 33.25C39.1217 33.4167 39.1984 33.5733 39.305 33.72L39.415 33.86L39.305 34H37.715L37.625 33.72ZM43.6199 34.13C43.1999 34.13 42.8332 34.0333 42.5199 33.84C42.2065 33.6467 41.9632 33.3767 41.7899 33.03C41.6165 32.6767 41.5299 32.27 41.5299 31.81C41.5299 31.33 41.6265 30.9067 41.8199 30.54C42.0132 30.1733 42.2865 29.89 42.6399 29.69C42.9999 29.49 43.4132 29.39 43.8799 29.39C44.3732 29.39 44.7532 29.52 45.0199 29.78C45.2932 30.04 45.4299 30.3533 45.4299 30.72C45.4299 30.9733 45.3599 31.2167 45.2199 31.45C45.0865 31.6833 44.8865 31.8733 44.6199 32.02C44.3599 32.1667 44.0532 32.24 43.6999 32.24C43.4999 32.24 43.2832 32.2067 43.0499 32.14C42.8165 32.0667 42.6999 31.96 42.6999 31.82C42.6999 31.7667 42.7132 31.72 42.7399 31.68C42.7665 31.64 42.7965 31.62 42.8299 31.62C42.8499 31.62 42.9099 31.64 43.0099 31.68C43.1165 31.7133 43.2532 31.73 43.4199 31.73C43.7865 31.73 44.0699 31.63 44.2699 31.43C44.4699 31.23 44.5699 30.99 44.5699 30.71C44.5699 30.47 44.4899 30.2633 44.3299 30.09C44.1765 29.9167 43.9699 29.83 43.7099 29.83C43.3165 29.83 43.0099 30.0033 42.7899 30.35C42.5765 30.69 42.4699 31.1767 42.4699 31.81C42.4699 32.35 42.5832 32.7733 42.8099 33.08C43.0432 33.38 43.3765 33.53 43.8099 33.53C44.3432 33.53 44.7832 33.3567 45.1299 33.01C45.1499 32.99 45.1765 32.98 45.2099 32.98C45.2632 32.98 45.3165 33.0067 45.3699 33.06C45.4299 33.1133 45.4599 33.17 45.4599 33.23C45.4599 33.25 45.4532 33.27 45.4399 33.29C45.4265 33.3033 45.4199 33.3133 45.4199 33.32C45.1932 33.5867 44.9232 33.79 44.6099 33.93C44.3032 34.0633 43.9732 34.13 43.6199 34.13Z" fill="white"/>
</svg>
