<svg width="203" height="30" viewBox="0 0 203 30" fill="none" xmlns="http://www.w3.org/2000/svg">
<path d="M16.36 0.999998C16.7867 0.999998 17.3733 1.24 18.12 1.72C18.8667 2.2 19.5333 2.76 20.12 3.4C20.7067 4.04 21 4.54666 21 4.92C20.9733 5.61333 20.52 7.73333 19.64 11.28L18.8 14.88L18.4 16.92C17.92 19.3467 17.52 21.24 17.2 22.6C16.9067 23.96 16.6267 24.8667 16.36 25.32C16.04 25.88 15.4533 26.4533 14.6 27.04C13.7467 27.6 12.7867 28.0667 11.72 28.44C10.68 28.8133 9.69333 29 8.76 29C7.8 29 6.66667 28.6 5.36 27.8C4.08 26.9733 2.97333 25.92 2.04 24.64C1.13333 23.36 0.68 22.0533 0.68 20.72C0.68 19.4667 1.09333 18.48 1.92 17.76C2.77333 17.0133 3.74667 16.64 4.84 16.64C5.82667 16.64 6.64 16.9067 7.28 17.44C7.25333 17.7067 7.24 18.0933 7.24 18.6C7.24 19.56 7.33333 20.48 7.52 21.36C7.70667 22.2133 7.96 22.8933 8.28 23.4C8.6 23.9067 8.92 24.16 9.24 24.16C9.90667 24.16 10.5467 23.28 11.16 21.52C11.8 19.7333 12.36 17.52 12.84 14.88C13.0267 13.8667 13.2533 12.7333 13.52 11.48C13.9733 9.34667 14.2533 7.8 14.36 6.84C13.1867 7 12.24 7.10667 11.52 7.16C11.2267 7.18667 10.6133 7.25333 9.68 7.36C8.74667 7.44 7.90667 7.56 7.16 7.72C6.57333 7.45333 6.10667 7.04 5.76 6.48C5.44 5.89333 5.28 5.25333 5.28 4.56C5.28 3.65333 5.54667 2.84 6.08 2.12C7.65333 1.72 9.37333 1.44 11.24 1.28C13.1333 1.09333 14.84 0.999998 16.36 0.999998ZM33.88 10.96C34.0933 9.62666 34.2 8.56 34.2 7.76C34.2 7.2 34.1467 6.76 34.04 6.44C33.96 6.12 33.8533 5.96 33.72 5.96C33.32 5.96 32.8533 6.29333 32.32 6.96C31.8133 7.62667 31.3733 8.42667 31 9.36C30.6533 10.2667 30.48 11.08 30.48 11.8C30.48 12.7067 30.92 13.6267 31.8 14.56C32.7067 15.4667 34.0267 16.5867 35.76 17.92C37.0667 18.88 38.04 19.68 38.68 20.32C39.32 20.9333 39.6533 21.4933 39.68 22C39.7067 23.12 39.12 24.2267 37.92 25.32C36.72 26.3867 35.2133 27.2667 33.4 27.96C31.6133 28.6533 29.9467 29 28.4 29C27.2 29 25.96 28.7067 24.68 28.12C23.4 27.5067 22.3333 26.8 21.48 26C20.6267 25.1733 20.1867 24.4533 20.16 23.84C20.1067 22.6667 20.4933 21.72 21.32 21C22.1467 20.2533 23.2533 19.88 24.64 19.88C25.3333 19.88 26.04 19.9733 26.76 20.16C27.08 21.92 27.36 23.1867 27.6 23.96C29.1733 23.56 30.88 22.8667 32.72 21.88C26.7733 17.3733 23.8 13.8533 23.8 11.32C23.8 10.0933 24.2533 8.62667 25.16 6.92C26.0667 5.18666 27.2667 3.70666 28.76 2.48C30.2533 1.22667 31.8267 0.599998 33.48 0.599998C34.7067 0.599998 35.8933 1.01333 37.04 1.84C38.1867 2.66667 39.12 3.68 39.84 4.88C40.56 6.08 40.92 7.2 40.92 8.24C40.92 9.25333 40.5067 10.0667 39.68 10.68C38.88 11.2667 37.88 11.56 36.68 11.56C35.7467 11.56 34.8133 11.36 33.88 10.96Z" fill="#372617"/>
<path d="M42.3656 28.4L42.8456 27.76C43.459 26.96 43.8856 26.12 44.1256 25.24C44.3923 24.36 44.5256 23.1867 44.5256 21.72V10.24C44.5256 8.82667 44.3923 7.68 44.1256 6.8C43.8856 5.89333 43.459 5.04 42.8456 4.24L42.3656 3.56L42.8456 3H53.5656C54.659 3 55.5256 2.94667 56.1656 2.84C56.8323 2.70667 57.3656 2.50667 57.7656 2.24L58.3656 1.76L58.9256 2.24V8.68L57.7656 9.12L57.4856 8.24C57.2456 7.33333 56.9923 6.66667 56.7256 6.24C56.459 5.78667 56.0856 5.46667 55.6056 5.28C55.1256 5.09333 54.4456 5 53.5656 5H50.3656C49.4323 5 48.819 5.18667 48.5256 5.56C48.2323 5.93333 48.0856 6.68 48.0856 7.8V15.12H52.3656C52.9523 15.12 53.459 15 53.8856 14.76C54.339 14.52 54.7656 14.08 55.1656 13.44L55.4856 13.04L56.2456 13.44V19.68L54.9656 20.08L54.8056 19.28C54.5656 18.4533 54.1656 17.8933 53.6056 17.6C53.0456 17.3067 52.1123 17.16 50.8056 17.16H48.0856V24.2C48.0856 25.32 48.2323 26.0933 48.5256 26.52C48.819 26.92 49.4323 27.2667 50.3656 27.56L51.2456 27.76L50.8056 29H42.8456L42.3656 28.4ZM69.8103 29.52C68.077 29.52 66.7303 29 65.7703 27.96C64.8103 26.8933 64.3303 25.4133 64.3303 23.52V14.48C64.3303 13.8933 64.0903 13.6 63.6103 13.6H61.9703L61.6903 12.72C62.3036 12.08 63.0503 11.56 63.9303 11.16C64.837 10.76 65.6636 10.56 66.4103 10.56C66.757 10.56 67.037 10.6667 67.2503 10.88C67.4903 11.0667 67.6103 11.32 67.6103 11.64V22.64C67.6103 24.08 67.9036 25.1867 68.4903 25.96C69.077 26.7067 69.9436 27.08 71.0903 27.08C72.717 27.08 73.9836 26.3867 74.8903 25C75.797 23.5867 76.2503 21.64 76.2503 19.16C76.2503 17.4 76.1436 16.0267 75.9303 15.04C75.7436 14.0267 75.3703 13.04 74.8103 12.08L74.3703 11.52L74.8103 11L79.2903 10.56V25.8C79.2903 26.5467 79.6103 26.92 80.2503 26.92C80.8636 26.92 81.4636 26.7067 82.0503 26.28L82.7703 27.2C82.1836 27.8933 81.517 28.4533 80.7703 28.88C80.0503 29.3067 79.3703 29.52 78.7303 29.52C77.7703 29.52 77.077 29.24 76.6503 28.68C76.2236 28.0933 76.0103 27.2 76.0103 26C75.4236 27.0933 74.5836 27.96 73.4903 28.6C72.397 29.2133 71.1703 29.52 69.8103 29.52ZM85.3009 27.88L85.9809 27.68C86.6209 27.5733 87.0343 27.3333 87.2209 26.96C87.4343 26.56 87.5409 25.8933 87.5409 24.96V14.8C87.5409 14.5067 87.4876 14.3067 87.3809 14.2C87.2743 14.0667 87.0876 14 86.8209 14H85.2609L84.9009 13.04C85.5943 12.4 86.3943 11.88 87.3009 11.48C88.2076 11.08 89.0076 10.88 89.7009 10.88C90.0476 10.88 90.3276 10.9867 90.5409 11.2C90.7543 11.4133 90.8609 11.68 90.8609 12V15.96H91.0609C91.4876 14.3333 92.1276 13.0267 92.9809 12.04C93.8609 11.0533 94.8076 10.56 95.8209 10.56C96.8343 10.56 97.6609 10.8933 98.3009 11.56C98.9676 12.2 99.3009 13.0933 99.3009 14.24C99.3009 15.1467 98.9676 15.9067 98.3009 16.52C97.6343 17.1333 96.7943 17.44 95.7809 17.44C95.3009 17.44 95.0609 17.32 95.0609 17.08C95.0609 17 95.1543 16.8133 95.3409 16.52C95.5276 16.2267 95.6876 15.9333 95.8209 15.64C95.9543 15.3467 96.0209 15 96.0209 14.6C96.0209 14.1467 95.9143 13.8 95.7009 13.56C95.4876 13.2933 95.2076 13.16 94.8609 13.16C94.3009 13.16 93.7143 13.5067 93.1009 14.2C92.4876 14.8933 91.9543 16 91.5009 17.52C91.0743 19.04 90.8609 20.9733 90.8609 23.32C90.8609 24.4133 90.9409 25.3067 91.1009 26C91.2876 26.6667 91.5943 27.2933 92.0209 27.88L92.4609 28.44L92.0209 29H85.6609L85.3009 27.88ZM117.84 29.52C116.854 29.52 116.147 29.2267 115.72 28.64C115.294 28.0267 115.08 27.04 115.08 25.68V17.04C115.08 15.8133 114.814 14.8933 114.28 14.28C113.747 13.64 112.96 13.32 111.92 13.32C110.88 13.32 109.96 13.7333 109.16 14.56C108.387 15.3867 107.787 16.5467 107.36 18.04C106.934 19.5333 106.72 21.2533 106.72 23.2C106.72 24.32 106.8 25.2267 106.96 25.92C107.147 26.6133 107.454 27.2667 107.88 27.88L108.32 28.44L107.88 29H101.52L101.16 27.88L101.84 27.68C102.48 27.5733 102.894 27.3333 103.08 26.96C103.294 26.56 103.4 25.8933 103.4 24.96V14.8C103.4 14.5067 103.347 14.3067 103.24 14.2C103.134 14.0667 102.947 14 102.68 14H101.12L100.76 13.04C101.454 12.4 102.254 11.88 103.16 11.48C104.067 11.08 104.867 10.88 105.56 10.88C105.907 10.88 106.187 10.9867 106.4 11.2C106.614 11.4133 106.72 11.68 106.72 12V15.96C107.334 14.3867 108.267 13.0933 109.52 12.08C110.774 11.0667 112.094 10.56 113.48 10.56C115.16 10.56 116.387 11.08 117.16 12.12C117.96 13.16 118.36 14.8 118.36 17.04V25.8C118.36 26.6267 118.72 27.04 119.44 27.04C120.027 27.04 120.627 26.7867 121.24 26.28L121.92 27.2C121.307 27.8933 120.627 28.4533 119.88 28.88C119.134 29.3067 118.454 29.52 117.84 29.52ZM128.122 7.52C127.722 7.52 127.255 7.24 126.722 6.68C126.188 6.12 125.922 5.61333 125.922 5.16C125.922 4.70667 126.175 4.2 126.682 3.64C127.215 3.08 127.695 2.8 128.122 2.8C128.575 2.8 129.068 3.08 129.602 3.64C130.135 4.2 130.402 4.70667 130.402 5.16C130.402 5.61333 130.135 6.12 129.602 6.68C129.068 7.24 128.575 7.52 128.122 7.52ZM129.322 29.52C128.335 29.52 127.615 29.2267 127.162 28.64C126.735 28.0267 126.522 27.04 126.522 25.68V14.48C126.522 14.16 126.468 13.9333 126.362 13.8C126.255 13.6667 126.068 13.6 125.802 13.6H124.162L123.882 12.72C124.575 12.08 125.362 11.56 126.242 11.16C127.148 10.76 127.935 10.56 128.602 10.56C128.948 10.56 129.228 10.6667 129.442 10.88C129.682 11.0667 129.802 11.32 129.802 11.64V25.8C129.802 26.6267 130.162 27.04 130.882 27.04C131.442 27.04 132.055 26.7867 132.722 26.28L133.402 27.2C132.735 27.8933 132.028 28.4533 131.282 28.88C130.562 29.3067 129.908 29.52 129.322 29.52ZM140.611 29.52C139.624 29.52 138.851 29.2133 138.291 28.6C137.731 27.96 137.451 27.0933 137.451 26V13.24H134.291C134.291 12.6 134.344 12.1867 134.451 12C134.557 11.7867 134.797 11.6267 135.171 11.52C136.451 11.2 137.357 10.6667 137.891 9.92C138.424 9.17333 138.824 8.18667 139.091 6.96C139.144 6.58667 139.264 6.36 139.451 6.28C139.664 6.17333 140.117 6.12 140.811 6.12V11H145.491C145.491 11.5067 145.411 11.96 145.251 12.36C145.117 12.76 144.931 13.0533 144.691 13.24H140.811V24.96C140.811 25.7067 140.904 26.24 141.091 26.56C141.304 26.8533 141.664 27 142.171 27C142.891 27 143.704 26.6133 144.611 25.84L145.291 26.8C144.677 27.6 143.931 28.2533 143.051 28.76C142.171 29.2667 141.357 29.52 140.611 29.52ZM155.435 29.52C153.702 29.52 152.355 29 151.395 27.96C150.435 26.8933 149.955 25.4133 149.955 23.52V14.48C149.955 13.8933 149.715 13.6 149.235 13.6H147.595L147.315 12.72C147.929 12.08 148.675 11.56 149.555 11.16C150.462 10.76 151.289 10.56 152.035 10.56C152.382 10.56 152.662 10.6667 152.875 10.88C153.115 11.0667 153.235 11.32 153.235 11.64V22.64C153.235 24.08 153.529 25.1867 154.115 25.96C154.702 26.7067 155.569 27.08 156.715 27.08C158.342 27.08 159.609 26.3867 160.515 25C161.422 23.5867 161.875 21.64 161.875 19.16C161.875 17.4 161.769 16.0267 161.555 15.04C161.369 14.0267 160.995 13.04 160.435 12.08L159.995 11.52L160.435 11L164.915 10.56V25.8C164.915 26.5467 165.235 26.92 165.875 26.92C166.489 26.92 167.089 26.7067 167.675 26.28L168.395 27.2C167.809 27.8933 167.142 28.4533 166.395 28.88C165.675 29.3067 164.995 29.52 164.355 29.52C163.395 29.52 162.702 29.24 162.275 28.68C161.849 28.0933 161.635 27.2 161.635 26C161.049 27.0933 160.209 27.96 159.115 28.6C158.022 29.2133 156.795 29.52 155.435 29.52ZM170.926 27.88L171.606 27.68C172.246 27.5733 172.659 27.3333 172.846 26.96C173.059 26.56 173.166 25.8933 173.166 24.96V14.8C173.166 14.5067 173.113 14.3067 173.006 14.2C172.899 14.0667 172.713 14 172.446 14H170.886L170.526 13.04C171.219 12.4 172.019 11.88 172.926 11.48C173.833 11.08 174.633 10.88 175.326 10.88C175.673 10.88 175.953 10.9867 176.166 11.2C176.379 11.4133 176.486 11.68 176.486 12V15.96H176.686C177.113 14.3333 177.753 13.0267 178.606 12.04C179.486 11.0533 180.433 10.56 181.446 10.56C182.459 10.56 183.286 10.8933 183.926 11.56C184.593 12.2 184.926 13.0933 184.926 14.24C184.926 15.1467 184.593 15.9067 183.926 16.52C183.259 17.1333 182.419 17.44 181.406 17.44C180.926 17.44 180.686 17.32 180.686 17.08C180.686 17 180.779 16.8133 180.966 16.52C181.153 16.2267 181.313 15.9333 181.446 15.64C181.579 15.3467 181.646 15 181.646 14.6C181.646 14.1467 181.539 13.8 181.326 13.56C181.113 13.2933 180.833 13.16 180.486 13.16C179.926 13.16 179.339 13.5067 178.726 14.2C178.113 14.8933 177.579 16 177.126 17.52C176.699 19.04 176.486 20.9733 176.486 23.32C176.486 24.4133 176.566 25.3067 176.726 26C176.913 26.6667 177.219 27.2933 177.646 27.88L178.086 28.44L177.646 29H171.286L170.926 27.88ZM194.905 29.52C193.225 29.52 191.759 29.1333 190.505 28.36C189.252 27.5867 188.279 26.5067 187.585 25.12C186.892 23.7067 186.545 22.08 186.545 20.24C186.545 18.32 186.932 16.6267 187.705 15.16C188.479 13.6933 189.572 12.56 190.985 11.76C192.425 10.96 194.079 10.56 195.945 10.56C197.919 10.56 199.439 11.08 200.505 12.12C201.599 13.16 202.145 14.4133 202.145 15.88C202.145 16.8933 201.865 17.8667 201.305 18.8C200.772 19.7333 199.972 20.4933 198.905 21.08C197.865 21.6667 196.639 21.96 195.225 21.96C194.425 21.96 193.559 21.8267 192.625 21.56C191.692 21.2667 191.225 20.84 191.225 20.28C191.225 20.0667 191.279 19.88 191.385 19.72C191.492 19.56 191.612 19.48 191.745 19.48C191.825 19.48 192.065 19.56 192.465 19.72C192.892 19.8533 193.439 19.92 194.105 19.92C195.572 19.92 196.705 19.52 197.505 18.72C198.305 17.92 198.705 16.96 198.705 15.84C198.705 14.88 198.385 14.0533 197.745 13.36C197.132 12.6667 196.305 12.32 195.265 12.32C193.692 12.32 192.465 13.0133 191.585 14.4C190.732 15.76 190.305 17.7067 190.305 20.24C190.305 22.4 190.759 24.0933 191.665 25.32C192.599 26.52 193.932 27.12 195.665 27.12C197.799 27.12 199.559 26.4267 200.945 25.04C201.025 24.96 201.132 24.92 201.265 24.92C201.479 24.92 201.692 25.0267 201.905 25.24C202.145 25.4533 202.265 25.68 202.265 25.92C202.265 26 202.239 26.08 202.185 26.16C202.132 26.2133 202.105 26.2533 202.105 26.28C201.199 27.3467 200.119 28.16 198.865 28.72C197.639 29.2533 196.319 29.52 194.905 29.52Z" fill="#055A5B"/>
</svg>
